<svg id="レイヤー_1" data-name="レイヤー 1" xmlns="http://www.w3.org/2000/svg" viewBox="0 0 100 100"><defs><style>.cls-1{fill:#fff;stroke-width:3px;}.cls-1,.cls-2,.cls-3{stroke:#000;stroke-linejoin:round;}.cls-2{fill:none;stroke-width:2px;}.cls-2,.cls-3{stroke-linecap:round;}.cls-3{stroke-width:1.81px;}</style></defs><path class="cls-1" d="M50,25.3c9.7,0,30.8,2,31.2,21.3V56c4.5-2.9,8.3.4,8.3,7.3s-9.3,7.6-9.3,7.6C77.9,84.5,63.4,92.7,50,92.7S22.1,84.5,19.8,70.8c0,0-9.3-.7-9.3-7.6s3.9-10.2,8.3-7.3V46.5C19.2,27.2,40.3,25.3,50,25.3Z"/><path class="cls-2" d="M18.5,64.2c-1-3.8-4.1-2.7-4.1-2.7"/><path class="cls-2" d="M81.5,64.2c1-3.8,4.1-2.7,4.1-2.7"/><path class="cls-3" d="M21.23,16.2C12.33,24.7,8.33,49,14.53,54c2.5-.7,5.6,1.7,6.4,3.2-.9-17.8,9.3-7.4,16-22.3,18.8,15.5,43.1,4.2,42.2,22.2.9-1.4,3.9-3.9,6.4-3.2,6.1-4.9,2.1-29.2-6.7-37.7C64.43,2.4,53.53,8.6,50,9.3,46.53,8.6,35.63,2.4,21.23,16.2Z"/></svg>