<svg id="レイヤー_1" data-name="レイヤー 1" xmlns="http://www.w3.org/2000/svg" viewBox="0 0 100 100"><defs><style>.cls-1{fill:#fff;}.cls-2{fill:none;stroke:#000;stroke-linecap:round;stroke-linejoin:round;stroke-width:8px;}</style></defs><path class="cls-1" d="M18.33,50.06c0,16.4,6.59,34.87,35,29.94S74.43,40.34,69,32.41,62.36,20,43.8,20,18.33,33.65,18.33,50.06Z"/><path class="cls-2" d="M68.6,75.78c9.92-12.62,10.17-30.59-2-44.17S23.83,16.27,17.38,39.94"/><path d="M59.44,39.43C66.18,57.73,58.58,80,39.09,80S8.56,57.73,12.47,39.43c2.69-12.59,12.2-20.24,21.92-20.24S54.81,26.84,59.44,39.43Z"/><ellipse class="cls-1" cx="46.97" cy="37.92" rx="5.02" ry="5.07"/><path d="M74.36,37.6,87,32.47a2.36,2.36,0,0,1,2.57,3.85L80,46a5.18,5.18,0,1,1-7.36-7.28A5.32,5.32,0,0,1,74.36,37.6Z"/></svg>