<svg id="レイヤー_1" data-name="レイヤー 1" xmlns="http://www.w3.org/2000/svg" viewBox="0 0 100 100"><defs><style>.cls-1{fill:#ffe5cf;stroke-width:3px;}.cls-1,.cls-2{stroke:#000;stroke-linejoin:round;}.cls-2{fill:none;stroke-linecap:round;stroke-width:2px;}</style></defs><path class="cls-1" d="M50,13.5c10.5,0,33.4,2.1,33.7,23V46.7c4.8-3.2,9,.4,9,7.9s-10,8.2-10,8.2C80.2,77.6,64.5,86.5,50,86.5S19.8,77.6,17.3,62.8c0,0-10-.7-10-8.2s4.2-11.1,9-7.9V36.5C16.6,15.6,39.5,13.5,50,13.5Z"/><path class="cls-2" d="M15.9,55.7c-1.1-4.1-4.4-2.9-4.4-2.9"/><path class="cls-2" d="M84.1,55.7c1.1-4.1,4.4-2.9,4.4-2.9"/></svg>