<?xml version="1.0" encoding="UTF-8"?>
<svg id="faceのコピー" xmlns="http://www.w3.org/2000/svg" width="640" height="640" xmlns:xlink="http://www.w3.org/1999/xlink" viewBox="0 0 640 640">
  <defs>
    <symbol id="eye-21" viewBox="0 0 640 640">
      <g>
        <g>
          <g>
            <circle cx="410" cy="338" r="36" fill="#fff"/>
            <path d="M410,306c17.6,0,32,14.4,32,32s-14.4,32-32,32-32-14.4-32-32,14.4-32,32-32m0-8c-22.1,0-40,17.9-40,40s17.9,40,40,40,40-17.9,40-40-17.9-40-40-40h0Z"/>
          </g>
          <circle cx="410" cy="338" r="17.5"/>
          <g>
            <circle cx="230" cy="338" r="36" fill="#fff"/>
            <path d="M230,306c17.6,0,32,14.4,32,32s-14.4,32-32,32-32-14.4-32-32,14.4-32,32-32m0-8c-22.1,0-40,17.9-40,40s17.9,40,40,40,40-17.9,40-40-17.9-40-40-40h0Z"/>
          </g>
          <circle cx="230" cy="338" r="17.5"/>
        </g>
        <rect width="640" height="640" fill="none"/>
      </g>
    </symbol>
  </defs>
  <use width="640" height="640" xlink:href="#eye-21"/>
</svg>