<?xml version="1.0" encoding="UTF-8"?>
<svg id="face" xmlns="http://www.w3.org/2000/svg" width="640" height="640" xmlns:xlink="http://www.w3.org/1999/xlink" viewBox="0 0 640 640">
  <defs>
    <symbol id="eyebrows-16" viewBox="0 0 259.8 18.9">
      <g>
        <path d="M184.6,7.4c23.4-10.8,51.7-9.7,73.9,3.1,2.7,1.6,.7,5.7-2.3,4.5-21-9.6-46.4-8.5-66.1,3.1-7.4,3.9-13-6.9-5.4-10.7h0Z"/>
        <path d="M1.2,10.5C23.4-2.3,51.7-3.4,75.1,7.4c3,1.4,4.4,4.9,3,8-1.4,3-4.9,4.4-8,3C50.3,6.6,24.7,5.2,3.5,14.9c-2.8,1.2-4.9-2.8-2.2-4.4h0Z"/>
      </g>
    </symbol>
  </defs>
  <use width="259.8" height="18.9" transform="translate(190.1 240)" xlink:href="#eyebrows-16"/>
</svg>