<?xml version="1.0" encoding="UTF-8"?>
<svg id="face" xmlns="http://www.w3.org/2000/svg" width="640" height="640" xmlns:xlink="http://www.w3.org/1999/xlink" viewBox="0 0 640 640">
  <defs>
    <symbol id="face-2" viewBox="0 0 456 436">
      <g>
        <g>
          <g>
            <g>
              <path d="M32,270.4c-8.7-1.8-28-9-28-37.4s7.9-28,23.4-28,3.3,.1,4.6,.3v65.1Z" fill="#ffe5cf"/>
              <path d="M27.4,209h0c.2,0,.4,0,.6,0v56.1c-2-.7-4.2-1.7-6.3-3.1-9.1-5.7-13.7-15.5-13.7-29s6.2-24,19.4-24m0-8c-10.6,0-27.4,4.4-27.4,32,0,40.4,36,42,36,42v-73.1s-3.6-.9-8.6-.9h0Z"/>
            </g>
            <line x1="32" y1="242.9" x2="18" y2="230.9" fill="#ffe5cf" stroke="#000" stroke-linecap="round" stroke-linejoin="round" stroke-width="8"/>
          </g>
          <g>
            <g>
              <path d="M424,205.3c1.2-.2,2.8-.3,4.6-.3,4.3,0,10.4,.8,15.2,4.7,5.5,4.5,8.3,12.3,8.3,23.2,0,28.6-19.3,35.7-28,37.5v-65.1Z" fill="#ffe5cf"/>
              <path d="M428.6,209c13.3,0,19.4,7.6,19.4,24s-4.6,23.3-13.7,29c-2.1,1.4-4.3,2.3-6.3,3.1v-56.1c.2,0,.4,0,.6,0m0-8c-4.9,0-8.6,.9-8.6,.9v73.1s36-1.6,36-42-16.8-32-27.4-32h0Z"/>
            </g>
            <line x1="424" y1="242.9" x2="438" y2="230.9" fill="#ffe5cf" stroke="#000" stroke-linecap="round" stroke-linejoin="round" stroke-width="8"/>
          </g>
        </g>
        <g>
          <path d="M228,432c-37.8,0-86.6-17.8-127.3-46.6-43.6-30.8-68.7-67.1-68.7-99.6V138.6c0-31.8,21.2-65.2,58.2-91.6C128.5,19.7,178.7,4,228,4s99.5,15.7,137.8,43c37,26.4,58.2,59.8,58.2,91.6v147.3c0,32.5-25,68.8-68.7,99.6-40.8,28.7-89.5,46.6-127.3,46.6Z" fill="#ffe5cf"/>
          <path d="M228,8c48.4,0,97.8,15.4,135.5,42.3,17.5,12.5,31.8,27.1,41.6,42.3,9.9,15.4,14.9,30.9,14.9,46v147.3c0,16-6.3,32.8-18.6,50-11.6,16.1-28.3,32.1-48.3,46.3-19.4,13.7-41.3,25.2-63.2,33.3-22.2,8.2-43.6,12.5-61.8,12.5s-39.6-4.3-61.8-12.5c-22-8.1-43.8-19.6-63.2-33.3-20.1-14.1-36.8-30.1-48.3-46.3-12.4-17.3-18.6-34.1-18.6-50V138.6c0-15.1,5-30.6,14.9-46,9.8-15.2,24.1-29.8,41.6-42.3C130.2,23.4,179.6,8,228,8m0-8C121,0,28,70.5,28,138.6v147.3c0,74.1,121,150.1,200,150.1s200-76.1,200-150.1V138.6C428,70.5,335,0,228,0h0Z"/>
        </g>
      </g>
    </symbol>
  </defs>
  <use width="456" height="436" transform="translate(92 112)" xlink:href="#face-2"/>
</svg>