<?xml version="1.0" encoding="UTF-8"?>
<svg id="face" xmlns="http://www.w3.org/2000/svg" width="640" height="640" xmlns:xlink="http://www.w3.org/1999/xlink" viewBox="0 0 640 640">
  <defs>
    <symbol id="face-4" viewBox="0 0 456 436">
      <g>
        <g>
          <g>
            <g>
              <path d="M32,270.4c-8.7-1.8-28-9-28-37.4s7.9-28,23.4-28,3.3,.1,4.6,.3v65.1Z" fill="#ffe5cf"/>
              <path d="M27.4,209h0c.2,0,.4,0,.6,0v56.1c-2-.7-4.2-1.7-6.3-3.1-9.1-5.7-13.7-15.5-13.7-29s6.2-24,19.4-24m0-8c-10.6,0-27.4,4.4-27.4,32,0,40.4,36,42,36,42v-73.1s-3.6-.9-8.6-.9h0Z"/>
            </g>
            <line x1="32" y1="242.9" x2="18" y2="230.9" fill="#ffe5cf" stroke="#000" stroke-linecap="round" stroke-linejoin="round" stroke-width="8"/>
          </g>
          <g>
            <g>
              <path d="M424,205.3c1.2-.2,2.8-.3,4.6-.3,4.3,0,10.4,.8,15.2,4.7,5.5,4.5,8.3,12.3,8.3,23.2,0,28.6-19.3,35.7-28,37.5v-65.1Z" fill="#ffe5cf"/>
              <path d="M428.6,209c13.3,0,19.4,7.6,19.4,24s-4.6,23.3-13.7,29c-2.1,1.4-4.3,2.3-6.3,3.1v-56.1c.2,0,.4,0,.6,0m0-8c-4.9,0-8.6,.9-8.6,.9v73.1s36-1.6,36-42-16.8-32-27.4-32h0Z"/>
            </g>
            <line x1="424" y1="242.9" x2="438" y2="230.9" fill="#ffe5cf" stroke="#000" stroke-linecap="round" stroke-linejoin="round" stroke-width="8"/>
          </g>
        </g>
        <g>
          <path d="M228,432c-42.5,0-78.5-5.9-106.9-17.4-24.6-10-44.3-24.6-58.5-43.3-27.1-35.7-30.6-80.5-30.6-115.4v-117.2c0-31.8,21.2-65.2,58.2-91.6C128.5,19.7,178.7,4,228,4s99.5,15.7,137.8,43c37,26.4,58.2,59.8,58.2,91.6v117.2c0,35-3.5,79.7-30.6,115.4-14.2,18.7-33.9,33.3-58.5,43.3-28.5,11.6-64.5,17.4-106.9,17.4Z" fill="#ffe5cf"/>
          <path d="M228,8c48.4,0,97.8,15.4,135.5,42.3,17.5,12.5,31.8,27.1,41.6,42.3,9.9,15.4,14.9,30.9,14.9,46v117.2c0,22.7-1.7,41.1-5.3,57.7-4.8,21.9-12.8,40-24.4,55.3-13.7,18.1-32.9,32.3-56.8,42-28,11.4-63.5,17.1-105.4,17.1s-77.4-5.8-105.4-17.1c-23.9-9.7-43.1-23.9-56.8-42-11.6-15.4-19.6-33.5-24.4-55.3-3.6-16.6-5.3-35-5.3-57.7v-117.2c0-15.1,5-30.6,14.9-46,9.8-15.2,24.1-29.8,41.6-42.3C130.2,23.4,179.6,8,228,8m0-8C121,0,28,70.5,28,138.6v117.2c0,74.1,17,180.2,200,180.2s200-106.1,200-180.2v-117.2C428,70.5,335,0,228,0h0Z"/>
        </g>
      </g>
    </symbol>
  </defs>
  <use width="456" height="436" transform="translate(92 112)" xlink:href="#face-4"/>
</svg>