<?xml version="1.0" encoding="UTF-8"?>
<svg id="faceのコピー" xmlns="http://www.w3.org/2000/svg" width="640" height="640" xmlns:xlink="http://www.w3.org/1999/xlink" viewBox="0 0 640 640">
  <defs>
    <symbol id="face-1" viewBox="0 0 484 416">
      <g>
        <g>
          <path d="M242,412c-80.7,0-134.7-16.4-165-50-27-30.1-30.8-69.4-30.9-104,0-1.8-1.1-3.3-2.8-3.8C8.9,243.6,2.9,225.6,4.2,198.2c.8-16.4,8.7-27,20.3-27s10.2,1.8,15.5,5.2c.7,.4,1.4,.6,2.1,.6s1.3-.2,1.9-.5c1.3-.7,2.1-2,2.1-3.5v-34.4c0-31.8,21.2-65.2,58.2-91.6C142.6,19.7,192.8,4,242,4s99.4,15.7,137.7,43c37,26.4,58.2,59.8,58.2,91.6v34.4c0,1.5,.8,2.8,2.1,3.5,.6,.3,1.3,.5,1.9,.5s1.5-.2,2.1-.6c5.3-3.4,10.7-5.2,15.5-5.2,11.6,0,19.6,10.6,20.3,27,1.3,27.4-4.8,45.4-39.2,56-1.7,.5-2.8,2.1-2.8,3.8-.1,34.6-3.9,73.9-30.9,104-30.3,33.7-84.2,50-165,50Z" fill="#ffe5cf"/>
          <path d="M242,8c48.4,0,97.8,15.4,135.4,42.3,17.4,12.5,31.8,27.1,41.6,42.3,9.9,15.4,14.9,30.9,14.9,46.1v34.4c0,2.9,1.6,5.6,4.1,7,1.2,.7,2.5,1,3.9,1s3-.4,4.3-1.2c4.7-3,9.3-4.6,13.4-4.6,11.3,0,15.8,12,16.3,23.2,1.2,26.1-4.2,42.1-36.3,52-3.3,1-5.6,4.1-5.6,7.6-.1,33.8-3.8,72.3-29.9,101.3-13.6,15.1-32.7,26.8-56.7,34.8-27.8,9.2-63.2,13.9-105.3,13.9s-77.5-4.7-105.3-13.9c-24.1-8-43.1-19.7-56.7-34.8-26.1-29.1-29.8-67.5-29.9-101.3,0-3.5-2.3-6.6-5.6-7.6-32.1-9.9-37.5-25.9-36.3-52,.3-7.6,2.3-13.8,5.6-18,2.8-3.5,6.4-5.2,10.7-5.2s8.7,1.6,13.4,4.6c1.3,.8,2.8,1.2,4.3,1.2s2.6-.3,3.9-1c2.6-1.4,4.1-4.1,4.1-7v-34.4c0-15.1,5-30.6,14.9-46.1,9.7-15.2,24.1-29.8,41.6-42.3C144.2,23.4,193.6,8,242,8m0-8C135.1,0,42.1,70.5,42.1,138.6v34.4c-6.2-4-12.2-5.8-17.7-5.8-13.5,0-23.4,11.6-24.3,30.8-1.2,26.9,4.1,48.3,42,60,.3,73.7,18.3,158,199.9,158s199.6-84.3,199.9-158c37.8-11.7,43.2-33.1,42-60-.9-19.2-10.8-30.8-24.3-30.8-5.4,0-11.4,1.9-17.7,5.8v-34.4C441.9,70.5,348.9,0,242,0h0Z"/>
        </g>
        <path d="M444.7,222c-1.4,0-2.7-.7-3.5-2-1.1-1.9-.4-4.4,1.5-5.5l17.3-10c1.9-1.1,4.4-.4,5.5,1.5,1.1,1.9,.4,4.4-1.5,5.5l-17.3,10c-.6,.4-1.3,.5-2,.5Z"/>
        <path d="M39.3,222c-.7,0-1.4-.2-2-.5l-17.3-10c-1.9-1.1-2.6-3.6-1.5-5.5,1.1-1.9,3.6-2.6,5.5-1.5l17.3,10c1.9,1.1,2.6,3.6,1.5,5.5-.7,1.3-2.1,2-3.5,2Z"/>
      </g>
    </symbol>
  </defs>
  <use width="484" height="416" transform="translate(78 112)" xlink:href="#face-1"/>
</svg>