<?xml version="1.0" encoding="UTF-8"?>
<svg id="face" xmlns="http://www.w3.org/2000/svg" width="640" height="640" xmlns:xlink="http://www.w3.org/1999/xlink" viewBox="0 0 640 640">
  <defs>
    <symbol id="hair-11" viewBox="0 0 554 538">
      <g>
        <path d="M178.8,532.5c-59.3-9.3-104.3-31.5-133.9-66.1-24.4-28.6-38.1-64.8-40.6-107.8-2.4-41.9,7.8-94.7,28.6-148.7,21.6-55.8,52.4-106.6,86.8-143C158.6,25.7,200.8,4,241.8,4s23.1,1.7,34.4,5c.4,.1,.8,.2,1.1,.2s.8,0,1.1-.2c11.3-3.4,22.9-5.1,34.4-5.1,40.9,0,82.9,21.7,121.6,62.6,34.4,36.4,65.2,87.2,86.7,143,20.8,54,31,106.9,28.6,148.8-2.5,43-16.1,79.2-40.6,107.8-29.6,34.6-74.6,56.8-133.9,66.1,13.1-16,38.4-50.8,56-94,12.6-30.9,19.2-60.7,19.6-88.8,.5-34.5-8.4-66.3-26.5-94.5-.2-.3-.5-.6-.8-.9-38.5-33.1-69.4-46.6-96.6-58.5-37.4-16.3-67-29.3-102.8-84.7-.7-1.2-2-1.8-3.4-1.8s-.6,0-.9,.1c-1.6,.4-2.9,1.7-3.1,3.4-10.9,89.9-61.8,132.6-91.1,150-.6,.4-1.1,.9-1.4,1.5-15.5,27.8-22.6,58.8-20.9,92.4,1.4,27.2,8.4,56.1,21,85.8,17.5,41.3,41.7,74.6,54.4,90.1Z"/>
        <path d="M312.8,8c20.5,0,41.3,5.6,61.9,16.5,19.4,10.3,38.5,25.4,56.8,44.8,34,36.1,64.5,86.4,85.9,141.7,10.1,26.3,17.8,52.5,22.6,77.8,4.9,25.5,6.8,48.9,5.6,69.4-1.1,19.3-4.6,37.5-10.4,54.2-6.7,19.2-16.5,36.4-29.2,51.2-27.2,31.8-67.9,53-121.1,63,14.1-18.3,34.7-49.1,50-86.7,12.8-31.3,19.5-61.7,19.9-90.2,.5-35.3-8.6-67.9-27.2-96.7-.4-.6-.9-1.2-1.5-1.7-38.9-33.5-70.1-47.1-97.6-59.1-36.8-16.1-65.9-28.8-101.1-83.2-1.5-2.3-4-3.7-6.7-3.7s-1.2,0-1.8,.2c-3.3,.8-5.7,3.5-6.1,6.8-10.7,88.2-60.5,130-89.2,147.1-1.2,.7-2.2,1.7-2.9,3-15.9,28.4-23.1,60.2-21.4,94.5,1.4,27.7,8.6,57,21.3,87.2,15.2,35.8,34.8,65.1,48.4,82.8-53.2-10-93.9-31.1-121.1-63-12.7-14.8-22.5-32-29.2-51.2-5.8-16.7-9.3-34.9-10.4-54.2-1.2-20.5,.7-43.8,5.7-69.3,4.9-25.3,12.5-51.4,22.7-77.7,21.4-55.3,51.9-105.6,86-141.7,18.4-19.5,37.6-34.6,57-45,20.6-11,41.5-16.6,62.1-16.6,11.1,0,22.3,1.6,33.3,4.9,.7,.2,1.5,.3,2.3,.3s1.5-.1,2.3-.3c11-3.2,22.2-4.9,33.3-4.9m0-8c-11.7,0-23.5,1.7-35.5,5.2C265.3,1.7,253.4,0,241.8,0,104.6,0-7.1,230.4,.3,358.9c4.2,73.4,43.6,160.7,188.6,179.1-14.6-14.6-127.3-153.7-61.1-271.8,38.7-23,83-70.2,93-153,63.3,97.9,110.4,66.8,200.2,144,77.1,119.8-40.9,265.5-55.9,280.5,145-18.4,184.3-105.7,188.6-179.1C561.1,230.2,449.9,0,312.8,0h0Z"/>
      </g>
    </symbol>
  </defs>
  <use width="554" height="538" transform="translate(43 50)" xlink:href="#hair-11"/>
</svg>