<?xml version="1.0" encoding="UTF-8"?>
<svg id="face" xmlns="http://www.w3.org/2000/svg" width="640" height="640" xmlns:xlink="http://www.w3.org/1999/xlink" viewBox="0 0 640 640">
  <defs>
    <symbol id="wear-6" viewBox="0 0 320 138">
      <g>
        <g>
          <rect x="116" y="4" width="88" height="80" fill="#ffe5cf"/>
          <path d="M200,8V80H120V8h80M208,0H112V88h96V0h0Z"/>
        </g>
        <g>
          <path d="M4.1,134c1.4-34.4,20.8-61.9,57.8-81.7,22.3-11.9,44.7-17.5,54.1-19.5v23.2c0,.5,0,.9,.3,1.4,6.1,16.3,20.8,24.6,43.7,24.6s37.7-8.3,43.7-24.6c.2-.4,.3-.9,.3-1.4v-23.2c9.5,2,32,7.6,54.3,19.6,36.9,19.8,56.2,47.3,57.6,81.6H4.1Z" fill="#fff"/>
          <path d="M112,37.8v18.2c0,1,.2,1.9,.5,2.8,3.8,10.1,10.6,17.5,20.3,22.1,7.5,3.5,16.3,5.2,27.2,5.2s19.7-1.7,27.2-5.2c9.7-4.5,16.6-11.9,20.3-22.1,.3-.9,.5-1.8,.5-2.8v-18.2c10.9,2.6,29.9,8.1,48.6,18.2,16.3,8.8,29.3,19.4,38.5,31.3,9.6,12.6,15.2,26.9,16.6,42.6H8.3c1.4-15.8,7-30.1,16.6-42.6,9.2-12,22.1-22.5,38.5-31.3,18.7-10.1,37.7-15.6,48.6-18.2m88-9.8v28c-6.5,17.6-23.4,22-40,22s-33.5-4.4-40-22V28S0,46.7,0,138H320c0-91.3-120-110-120-110h0Z"/>
        </g>
      </g>
    </symbol>
  </defs>
  <use width="320" height="138" transform="translate(160 502)" xlink:href="#wear-6"/>
</svg>