<svg xmlns="http://www.w3.org/2000/svg" width="825.268" height="472.144" viewBox="0 0 825.268 472.144"><defs><style>.cls-1{fill:#259993;}.cls-2{fill:#168e88;}.cls-3{fill:#ffd632;}.cls-4{fill:#16afab;}</style></defs><g id="レイヤー_2" data-name="レイヤー 2"><g id="レイヤー_2-2" data-name="レイヤー 2"><path class="cls-1" d="M33.919,82.391,44.7,69.411c5.39,4.069,11.771,6.93,18.26,6.93,5.721,0,7.92-1.87,7.92-4.18,0-4.181-3.739-5.06-10.34-7.81l-8.91-3.741C43.379,57.53,36.56,51.041,36.56,40.7c0-12.21,11-22.22,27.279-22.22A35.942,35.942,0,0,1,88.26,28.05L78.8,39.931c-5.171-3.41-9.24-5.17-16.061-5.17-4.179,0-7.04,1.54-7.04,4.84s4.071,4.509,11.22,7.15l8.25,3.409c9.57,3.521,15.07,9.681,15.07,19.58,0,12.1-10.12,22.881-28.6,22.881A43.1,43.1,0,0,1,33.919,82.391Z"/><path class="cls-1" d="M96.178,19.8h19.14l11.991,31.9,5.83,16.061h.439c-.88-7.7-2.639-18.481-2.639-27.281V19.8h18.04V91.3H129.838l-11.989-32.01-5.83-15.95h-.441c.88,8.139,2.64,18.479,2.64,27.28V91.3H96.178Z"/><path class="cls-1" d="M154.917,82.391l10.78-12.98c5.39,4.069,11.771,6.93,18.26,6.93,5.721,0,7.92-1.87,7.92-4.18,0-4.181-3.739-5.06-10.34-7.81l-8.91-3.741c-8.25-3.08-15.069-9.569-15.069-19.91,0-12.21,11-22.22,27.279-22.22a35.942,35.942,0,0,1,24.421,9.57L199.8,39.931c-5.171-3.41-9.24-5.17-16.061-5.17-4.179,0-7.04,1.54-7.04,4.84s4.071,4.509,11.22,7.15l8.25,3.409c9.57,3.521,15.07,9.681,15.07,19.58,0,12.1-10.12,22.881-28.6,22.881A43.1,43.1,0,0,1,154.917,82.391Z"/><circle class="cls-2" cx="626.272" cy="170.742" r="16.435"/><path class="cls-2" d="M69.261,126.475a15.673,15.673,0,1,0,.593,17.332H136.7V126.475Z"/><rect class="cls-3" x="418.49" y="79.9" width="92.395" height="17.331"/><rect class="cls-2" x="522.95" y="79.9" width="17.343" height="134.463"/><path class="cls-4" d="M166.8,305.959V281.581H149.071v24c0,21.712-3.621,41.139-10.674,57.9L99.7,333.385l-10.1,12.38,40.982,32.758c-.031.05-.064.1-.095.149l13.476,10.935c.05-.076.1-.151.152-.228L172.9,412.044l10.865-13.523L152.5,374.333C161.842,354.526,166.8,331.29,166.8,305.959Z"/><path class="cls-2" d="M505.508,339.527V306.768H487.973v32.759H442.607v17.332h44.984c-1.715,43.8-8.386,78.087-17.345,104.75l16.774,4.953c10.673-31.616,16.583-66.661,18.108-109.7h68.727V339.527Z"/><path class="cls-3" d="M731.008,184.672a15.635,15.635,0,0,0-14.766,20.916c-18.4,23.452-55.11,50.981-104.544,51.307l2.288,17.523c55.222-.5,96.133-30.619,116.472-58.431.184.007.364.028.55.028a15.672,15.672,0,1,0,0-31.343Z"/><path class="cls-4" d="M400.06,197.221a15.661,15.661,0,1,0,1.535,17.142h109.29V197.221Z"/><path class="cls-3" d="M123.519,388.541c-15.139,18.919-36.793,31.68-64.7,36.686a15.67,15.67,0,1,0,5.006,16.448c31.259-5.9,55.816-20.879,73.053-42.292Z"/><path class="cls-4" d="M287.843,367.808a15.659,15.659,0,1,0,2.084,17.712H391.619V367.808Z"/><path class="cls-3" d="M585.92,339.527v17.332h.027V399.9c0,20.818-6.972,32-18.465,38.44a15.666,15.666,0,1,0,7.109,15.371c17.134-8.1,28.7-24.262,28.7-53.049V339.527Z"/><path class="cls-4" d="M703.764,383.539a15.657,15.657,0,1,0,2,17.713H820.351V383.539Z"/><path class="cls-4" d="M77.2,207.228V181.707H59.852v25.331c0,36.567-20.586,59.613-59.852,62.851l2.478,16.95C49.94,283.411,77.2,253.51,77.2,207.228Z"/><path class="cls-3" d="M166.976,126.475H148.768v17.332h.291V161.9c0,27.045-10.866,44.185-31.833,51.614l10.1,14.474c24.779-10.857,39.647-32.949,39.647-65.708Z"/><path class="cls-3" d="M272.72,201.81l.011,80.888h17.335V196.477S274.893,201.369,272.72,201.81Z"/><path class="cls-4" d="M344.13,131.374a15.7,15.7,0,1,0-28.821,8.541c-9.4,19.708-26.484,28.929-53.062,34.794L212.5,185.756l2.669,17.141,51.274-11.808c2.093-.571,4.187-.951,6.28-1.332v0c2.173-.441,17.346-5.333,17.346-5.333h.01c19.115-7.222,33.084-18.367,41.683-37.763A15.647,15.647,0,0,0,344.13,131.374Z"/><path class="cls-1" d="M630.189,192.094a17.435,17.435,0,1,1,17.435-17.435A17.456,17.456,0,0,1,630.189,192.094Zm0-32.869a15.435,15.435,0,1,0,15.435,15.434A15.451,15.451,0,0,0,630.189,159.225Z"/><path class="cls-1" d="M60.436,156.177a16.672,16.672,0,1,1,13.246-26.784h67.939v19.331h-67.3A16.578,16.578,0,0,1,60.436,156.177Zm0-31.343A14.672,14.672,0,1,0,72.921,147.2l.293-.473h66.407V131.393H72.665l-.3-.417A14.724,14.724,0,0,0,60.436,124.834Z"/><path class="cls-1" d="M515.8,102.148H421.408V82.816H515.8Zm-92.394-2H513.8V84.816H423.408Z"/><path class="cls-1" d="M545.21,219.28H525.867V82.816H545.21Zm-17.343-2H543.21V84.816H527.867Z"/><path class="cls-1" d="M176.974,417.359l-28.7-22.6-.158.243-15.029-12.194.091-.145L92.1,349.832l11.358-13.919L141.893,365.8c6.7-16.431,10.095-35.365,10.095-56.305v-25h19.727v25.379c0,25.1-4.727,48-14.05,68.072L189.1,402.27Zm-29.185-25.526,28.867,22.729,9.607-11.957-31.09-24.055.343-.727c9.422-19.981,14.2-42.842,14.2-67.946V286.5H153.988v23c0,21.722-3.617,41.333-10.752,58.287l-.5,1.2L103.777,338.69l-8.846,10.841,40.89,32.685-.1.155,11.926,9.678Z"/><path class="cls-1" d="M491.577,471.711l-18.692-5.52.33-.983c9.83-29.255,15.633-64.051,17.252-103.432H445.524V342.444H490.89V309.686h19.535v32.758h68.348v19.332H510.009c-1.569,42.394-7.334,77.059-18.125,109.024ZM475.44,464.86l14.856,4.387c10.611-31.766,16.254-66.276,17.749-108.506l.035-.965h68.693V344.444H508.425V311.686H492.89v32.758H447.524v15.332h45.024l-.041,1.039C490.959,400.373,485.216,435.372,475.44,464.86Z"/><path class="cls-1" d="M617.026,279.343l-2.549-19.523,1.131-.008c58.826-.387,93.655-38.185,103.43-50.5a16.678,16.678,0,1,1,15.887,11.622h-.064c-20.673,27.993-62.132,57.907-116.948,58.4Zm-.273-17.542,2.027,15.523c53.923-.8,94.622-30.434,114.788-58.01l.313-.428.787.034c.085.006.17.013.257.013A14.728,14.728,0,1,0,721.1,209.17l.184.518-.34.434C711.57,222.071,676.472,260.921,616.753,261.8Z"/><path class="cls-1" d="M391.694,227.537a16.672,16.672,0,1,1,12.757-27.4H515.8V219.28H406.1A16.671,16.671,0,0,1,391.694,227.537Zm0-31.343a14.672,14.672,0,1,0,12.938,21.612l.283-.526H513.8V202.138H403.494l-.3-.378A14.615,14.615,0,0,0,391.694,196.194Z"/><path class="cls-1" d="M52.7,457.854a16.672,16.672,0,1,1,10.31-29.775c26.926-4.924,48.338-17.116,63.644-36.245l.629-.786,14.917,12.1-.625.776c-17.732,22.028-42.984,36.728-73.056,42.535A16.774,16.774,0,0,1,52.7,457.854Zm0-31.343a14.672,14.672,0,1,0,14.084,18.8l.173-.588.6-.114c29.5-5.572,54.318-19.8,71.831-41.163l-11.806-9.579c-15.658,19.173-37.41,31.371-64.669,36.262l-.459.082-.358-.3A14.7,14.7,0,0,0,52.7,426.511Z"/><path class="cls-1" d="M280,398.744a16.672,16.672,0,1,1,12.2-28.019H396.536v19.713h-102.1A16.666,16.666,0,0,1,280,398.744Zm0-31.343a14.672,14.672,0,1,0,12.959,21.566l.283-.529H394.536V372.725H291.309l-.3-.339A14.69,14.69,0,0,0,280,367.4Z"/><path class="cls-1" d="M562.99,472.144a16.672,16.672,0,1,1,8.427-31.046c11.9-6.909,17.447-18.774,17.447-37.28V361.776l-.027-1V342.444H608.21V404.58c0,26.4-9.686,44.47-28.794,53.725A16.737,16.737,0,0,1,562.99,472.144Zm0-31.344a14.672,14.672,0,1,0,14.528,16.693l.074-.536.489-.231c18.665-8.825,28.129-26.37,28.129-52.146V344.444H590.837l.027,59.374c0,19.567-6.029,32.058-18.976,39.313l-.521.293-.5-.321A14.631,14.631,0,0,0,562.99,440.8Z"/><path class="cls-1" d="M695.869,414.416a16.672,16.672,0,1,1,12.258-27.96H825.268v19.713h-115A16.679,16.679,0,0,1,695.869,414.416Zm0-31.344A14.672,14.672,0,1,0,708.8,404.694l.284-.525H823.268V388.456H707.226l-.3-.343A14.688,14.688,0,0,0,695.869,383.072Z"/><path class="cls-1" d="M5.54,291.82,2.774,272.9l1.061-.087c38-3.133,58.934-25.1,58.934-61.854V184.624H82.115v26.522c0,47.052-28.279,77.186-75.648,80.607Zm-.48-17.11,2.19,14.978c22.509-1.805,41.018-9.868,53.571-23.349,12.622-13.554,19.294-32.64,19.294-55.193V186.624H64.769v24.331C64.769,248.554,43.578,271.16,5.06,274.71Z"/><path class="cls-1" d="M130.9,233.15l-11.325-16.223,1.237-.439c20.681-7.326,31.167-24.374,31.167-50.671V148.724h-.29V129.393h20.207v36.8c0,32.05-13.916,55.089-40.245,66.624Zm-8.191-15.227,8.888,12.733c25.06-11.3,38.3-33.57,38.3-64.459v-34.8H153.686v15.331h.29v19.093C153.976,192.529,143.458,210.053,122.706,217.923Z"/><path class="cls-1" d="M294.983,287.615H275.648l-.011-82.705.8-.163c1.676-.34,12.008-3.618,17.238-5.305l1.307-.421Zm-17.335-2h15.335V201.767c-3.379,1.083-12.257,3.914-15.346,4.743Z"/><path class="cls-1" d="M294.983,287.615H275.648l-.011-82.705.8-.163c1.676-.34,12.008-3.618,17.238-5.305l1.307-.421Zm-17.335-2h15.335V201.767c-3.379,1.083-12.257,3.914-15.346,4.743Z"/><path class="cls-1" d="M218.26,208.03l-2.978-19.13,50.666-11.251c28.349-6.255,43.507-16.054,52.138-33.752a16.122,16.122,0,0,1-1.059-2.039,16.681,16.681,0,1,1,32.02-6.567,16.739,16.739,0,0,1-12.66,16.147c-8.134,18.046-21.506,30.079-42.04,37.837l-.207.065c-1.675.539-15.194,4.885-17.3,5.313-2.1.383-4.186.764-6.215,1.318Zm-.713-17.585,2.359,15.154,50.227-11.568c2.1-.572,4.244-.963,6.323-1.34,1.657-.337,11.99-3.617,17.22-5.3l.049-.016c20.4-7.726,33.059-19.2,41.038-37.2l.206-.465.5-.107a14.658,14.658,0,1,0-17.787-14.308,14.439,14.439,0,0,0,2.385,8l.307.47-.242.507C311.242,162.9,295.67,173.139,266.38,179.6Z"/></g></g></svg>